<?xml version="1.0" encoding="UTF-8" standalone="no"?><!DOCTYPE svg PUBLIC "-//W3C//DTD SVG 1.1//EN" "http://www.w3.org/Graphics/SVG/1.1/DTD/svg11.dtd"><svg width="100%" height="100%" viewBox="0 0 2134 2134" version="1.1" xmlns="http://www.w3.org/2000/svg" xmlns:xlink="http://www.w3.org/1999/xlink" xml:space="preserve" xmlns:serif="http://www.serif.com/" style="fill-rule:evenodd;clip-rule:evenodd;stroke-linejoin:round;stroke-miterlimit:2;"><g><path d="M366.667,1095.17l-0,71.5l66.666,-0l0,-71.5c38.5,-12.2 66.667,-47.834 66.667,-90.3c0,-36.234 -20.133,-68.867 -52.6,-85.1l-65,-32.467c-9.7,-4.867 -15.733,-14.633 -15.733,-25.5c-0,-15.7 12.766,-28.467 28.466,-28.467l9.734,0c15.7,0 28.466,12.767 28.466,28.467l0,4.867l66.667,-0l0,-4.867c0,-42.467 -28.167,-78.1 -66.667,-90.3l0,-71.5l-66.666,-0l-0,71.5c-38.5,12.2 -66.667,47.833 -66.667,90.3c0,36.233 20.133,68.867 52.6,85.1l65,32.467c9.7,4.866 15.733,14.633 15.733,25.5c0,15.7 -12.766,28.466 -28.466,28.466l-9.734,0c-15.7,0 -28.466,-12.766 -28.466,-28.466l-0,-38.2l-66.667,-0l0,38.2c0,42.466 28.167,78.1 66.667,90.3Z" style="fill:#fff;fill-rule:nonzero;"/><path d="M400,1300c202.167,0 366.667,-164.5 366.667,-366.667c-0,-9.133 -0.7,-18.1 -1.367,-27.1l113.067,-18.866c20.8,46.633 67.4,79.3 121.633,79.3c73.533,-0 133.333,-59.8 133.333,-133.334c0,-12.133 -2.166,-23.666 -5.2,-34.833l243.167,-138.967c24.233,24.9 57.967,40.467 95.367,40.467c73.533,0 133.333,-59.8 133.333,-133.333c0,-24.667 -7.167,-47.467 -18.9,-67.3l352.233,-352.234l0,186.2l66.667,0l0,-300l-300,0l0,66.667l186.2,0l-352.233,352.233c-19.834,-11.733 -42.634,-18.9 -67.3,-18.9c-73.534,0 -133.334,59.8 -133.334,133.334c0,12.133 2.167,23.666 5.2,34.833l-243.166,138.967c-24.234,-24.9 -57.967,-40.467 -95.367,-40.467c-69.5,0 -126.067,53.633 -132.133,121.567l-113.567,18.933c-41.267,-157.3 -184.233,-273.833 -354.3,-273.833c-202.167,-0 -366.667,164.5 -366.667,366.666c0,202.167 164.5,366.667 366.667,366.667Zm1066.67,-800c36.766,0 66.666,29.9 66.666,66.667c0,36.766 -29.9,66.666 -66.666,66.666c-36.767,0 -66.667,-29.9 -66.667,-66.666c0,-36.767 29.9,-66.667 66.667,-66.667Zm-466.667,266.667c36.767,-0 66.667,29.9 66.667,66.666c-0,36.767 -29.9,66.667 -66.667,66.667c-36.767,0 -66.667,-29.9 -66.667,-66.667c0,-36.766 29.9,-66.666 66.667,-66.666Zm-600,-133.334c165.4,0 300,134.6 300,300c0,165.4 -134.6,300 -300,300c-165.4,0 -300,-134.6 -300,-300c0,-165.4 134.6,-300 300,-300Z" style="fill:#fff;fill-rule:nonzero;"/><path d="M100,2100l333.333,0l0,-733.333l-333.333,-0l0,733.333Zm66.667,-666.667l200,0l-0,600l-200,0l-0,-600Z" style="fill:#fff;fill-rule:nonzero;"/><path d="M500,2100l333.333,0l0,-666.667l-333.333,0l0,666.667Zm66.667,-600l200,0l-0,533.333l-200,0l-0,-533.333Z" style="fill:#fff;fill-rule:nonzero;"/><path d="M900,2100l333.333,0l0,-1066.67l-333.333,0l0,1066.67Zm66.667,-1000l200,0l-0,933.333l-200,0l-0,-933.333Z" style="fill:#fff;fill-rule:nonzero;"/><path d="M1800,1571.5l0,-71.5l-66.667,0l0,71.5c-38.5,12.2 -66.666,47.833 -66.666,90.3c-0,36.233 20.133,68.833 52.6,85.1l65,32.5c9.7,4.833 15.733,14.6 15.733,25.467c0,15.666 -12.767,28.466 -28.467,28.466l-9.733,0c-15.7,0 -28.467,-12.8 -28.467,-28.466l0,-38.2l-66.666,-0l-0,38.2c-0,42.5 28.166,78.133 66.666,90.3l0,71.5l66.667,-0l0,-71.5c38.5,-12.2 66.667,-47.834 66.667,-90.3c-0,-36.234 -20.134,-68.834 -52.6,-85.1l-65,-32.5c-9.7,-4.834 -15.734,-14.6 -15.734,-25.467c0,-15.667 12.767,-28.467 28.467,-28.467l9.733,0c15.7,0 28.467,12.8 28.467,28.467l0,4.867l66.667,-0l-0,-4.867c-0,-42.467 -28.167,-78.1 -66.667,-90.3Z" style="fill:#fff4f4;fill-rule:nonzero;"/><path d="M2049.33,1576.03l-113.2,-181.133l59.234,-207.3c3.066,-10.833 4.633,-22 4.633,-33.2c0,-66.767 -54.3,-121.067 -121.033,-121.067l-91.234,0c-47.1,0 -87.533,27.3 -107.533,66.667l-46.867,0l0,-333.333l-333.333,-0l-0,1333.33l466.667,0c183.8,0 333.333,-149.533 333.333,-333.333l-0,-13.967c-0,-62.567 -17.533,-123.633 -50.667,-176.667Zm-316,-421.633c0,-30 24.4,-54.4 54.367,-54.4l91.233,0c30,0 54.4,24.4 54.4,54.4c0,5.033 -0.7,10.067 -2.1,14.933l-56.366,197.334l-227.734,-0l-95.966,-95.967c-11.334,-11.367 -17.834,-27.033 -17.834,-43.1c0,-33.6 27.334,-60.933 60.967,-60.933l72.367,-0l-0,66.666l66.666,0l0,-78.933Zm-366.666,878.933l-0,-1200l200,0l-0,269.867c-57.1,12.667 -100,63.567 -100,124.4c-0,34.1 13.266,66.133 37.4,90.233l86.966,86.967l-107,171.233c-33.166,53.034 -50.7,114.1 -50.7,176.667l0,13.967c0,109.1 52.934,205.833 134.2,266.666l-200.866,0Zm666.666,-266.666c0,147.033 -119.633,266.666 -266.666,266.666c-147.034,0 -266.667,-119.633 -266.667,-266.666l-0,-13.967c-0,-50.033 14,-98.9 40.533,-141.3l111.267,-178.067l229.733,0l111.267,178.067c26.533,42.4 40.533,91.267 40.533,141.3l0,13.967Z" style="fill:#fff;fill-rule:nonzero;"/></g></svg>