<?xml version="1.0" encoding="UTF-8" standalone="no"?><!DOCTYPE svg PUBLIC "-//W3C//DTD SVG 1.1//EN" "http://www.w3.org/Graphics/SVG/1.1/DTD/svg11.dtd"><svg width="100%" height="100%" viewBox="0 0 2130 2130" version="1.1" xmlns="http://www.w3.org/2000/svg" xmlns:xlink="http://www.w3.org/1999/xlink" xml:space="preserve" xmlns:serif="http://www.serif.com/" style="fill-rule:evenodd;clip-rule:evenodd;stroke-linejoin:round;stroke-miterlimit:2;"><path d="M1028.65,811.839c13.873,13.174 36.94,10.51 47.482,-5.393l207.586,-313.287c9.519,-14.36 5.588,-33.723 -8.772,-43.242c-14.344,-9.503 -33.707,-5.572 -43.226,8.772l-187.069,282.325l-103.947,-98.7c-12.492,-11.858 -32.229,-11.339 -44.103,1.153c-11.859,12.492 -11.339,32.229 1.153,44.087c-0.016,0 130.783,124.187 130.896,124.285Z" style="fill:#fff;fill-rule:nonzero;"/><path d="M1049.93,1287.55c5.962,2.729 12.557,4.175 19.12,4.175l0.26,-0c6.676,-0.033 13.369,-1.56 19.347,-4.419c474.267,-225.551 554.643,-712.197 567.964,-855.974c3.054,-32.83 -15.432,-63.402 -45.988,-76.072c-94.411,-39.198 -158.593,-126.852 -167.494,-228.752c-2.746,-31.368 -29.549,-55.815 -61.127,-55.815l-0.374,-0l-638.952,3.752c-32.212,0.179 -58.381,24.659 -60.851,56.936c-7.862,101.933 -71.101,190.221 -165.041,230.409c-30.247,12.93 -48.278,43.664 -44.834,76.478c15.009,143.615 101.088,629.302 577.97,849.282Zm-508.607,-868.418c115.188,-49.252 192.786,-157.391 202.647,-282.325l637.116,-3.736c11.322,124.658 90.025,231.805 205.636,279.791c5.165,2.16 8.3,7.261 7.797,12.719c-12.508,134.746 -87.345,589.082 -525.583,801.995c-440.755,-207.731 -520.856,-661.19 -534.956,-795.79c-0.568,-5.441 2.388,-10.526 7.343,-12.654Z" style="fill:#fff;fill-rule:nonzero;"/><path d="M619.199,592.038c3.768,13.873 21.361,26.576 38.287,21.913c16.602,-4.58 26.43,-21.653 21.914,-38.271c-7.944,-29.272 -14.62,-58.95 -19.867,-88.353c84.73,-55.214 147.612,-137.621 178.459,-233.868l450.421,-2.648c31.969,95.857 95.809,177.55 181.189,231.757c-4.89,29.483 -11.225,59.259 -18.844,88.645c-4.321,16.683 5.702,33.707 22.369,38.028c16.699,4.321 33.706,-5.702 38.027,-22.385c8.935,-34.503 16.212,-69.525 21.605,-104.093c3.022,-19.315 -5.815,-38.304 -22.482,-48.376c-79.532,-48.034 -138.32,-123.391 -165.529,-212.182c-6.124,-19.964 -24.951,-33.837 -45.841,-33.837l-0.292,0l-471.571,2.762c-21.02,0.13 -39.831,14.278 -45.728,34.389c-26.153,89.1 -84.064,165.139 -163.027,214.115c-16.553,10.25 -25.146,29.337 -21.914,48.636c5.816,34.486 13.483,69.395 22.824,103.768Z" style="fill:#fff;fill-rule:nonzero;"/><path d="M1448.11,684.516c-15.919,-6.595 -34.145,1.008 -40.724,16.927c-72.076,174.691 -186.175,307.504 -339.229,394.914c-154.239,-85.721 -269.996,-217.413 -344.102,-391.551c-6.757,-15.839 -25.081,-23.213 -40.919,-16.472c-15.854,6.741 -23.229,25.065 -16.488,40.903c80.88,190.025 208.3,333.283 378.719,425.762c7.18,3.915 15.042,5.848 22.888,5.848c8.041,-0 16.065,-2.031 23.375,-6.108c169.135,-94.363 294.768,-238.872 373.423,-429.514c6.579,-15.92 -1.007,-34.146 -16.943,-40.709Z" style="fill:#fff;fill-rule:nonzero;"/><path d="M200.113,1666.63c-60.835,-0 -110.347,49.496 -110.347,110.347c-0,60.851 49.512,110.347 110.347,110.347c60.851,0 110.363,-49.496 110.363,-110.347c0,-60.851 -49.496,-110.347 -110.363,-110.347Zm-0,158.316c-26.446,0 -47.969,-21.507 -47.969,-47.969c-0,-26.445 21.523,-47.969 47.969,-47.969c26.462,-0 47.986,21.524 47.986,47.969c-0,26.462 -21.524,47.969 -47.986,47.969Z" style="fill:#fff;fill-rule:nonzero;"/><path d="M2106.8,1361.29c-39.977,-58.74 -120.468,-74.302 -179.418,-34.698l-407.731,272.887l-87.037,-4.889l-2.225,-22.287c-8.675,-87.281 -75.39,-156.823 -162.231,-169.103c-0.553,-0.081 -1.089,-0.146 -1.641,-0.195l-439.342,-38.499c-14.864,-2.323 -62.443,-15.984 -193.177,-90.968c-67.95,-38.97 -144.509,-60.964 -222.286,-63.953l-0,-81.595c-0,-40.952 -33.301,-74.253 -74.253,-74.253l-263.206,0c-40.935,0 -74.252,33.317 -74.252,74.253l0,803.619c0,40.936 33.317,74.253 74.252,74.253l263.206,-0c40.936,-0 74.253,-33.317 74.253,-74.253l-0,-22.141l384.046,145.435c0.845,0.325 32.034,11.988 89.376,6.579c0.163,-0.016 638.123,-91.991 638.123,-91.991c0.163,-0.016 0.309,-0.049 0.471,-0.081c54.516,-8.691 105.929,-31.742 148.7,-66.618c0.39,-0.325 0.764,-0.65 1.137,-0.975l412.133,-370.677c48.571,-43.129 57.651,-116.147 21.102,-169.85Zm-62.671,123.342l-411.694,370.288c-34.08,27.632 -74.984,45.906 -118.323,52.859l-637.652,91.926c-0.146,0.016 -0.358,0.049 -0.553,0.081c-0.097,0.017 -0.211,0.033 -0.308,0.049c-19.071,3.005 -38.938,1.738 -59.064,-3.769l-404.823,-153.297l-0,-356.187c-0,-17.236 -13.97,-31.189 -31.189,-31.189c-17.235,-0 -31.189,13.953 -31.189,31.189l-0,445.027c-0,6.547 -5.328,11.875 -11.875,11.875l-263.206,-0c-6.546,-0 -11.874,-5.328 -11.874,-11.875l-0,-803.619c-0,-6.547 5.328,-11.875 11.874,-11.875l263.206,0c6.547,0 11.875,5.328 11.875,11.875l-0,217.705c-0,17.235 13.97,31.189 31.189,31.189c17.235,0 31.189,-13.97 31.189,-31.189l-0,-73.668c66.91,2.957 132.731,22.06 191.243,55.637c157.683,90.432 201.721,96.67 216.195,98.716c0.552,0.082 1.088,0.13 1.641,0.195l439.391,38.499c57.927,8.561 102.338,55.084 108.138,113.401l1.657,16.618l-588.254,36.322c-0.406,-0.032 -0.812,-0.065 -1.169,-0.097c-19.071,-1.722 -36.29,-10.738 -48.522,-25.39c-11.03,-13.239 -30.702,-15.026 -43.924,-3.98c-13.239,11.03 -15.026,30.702 -3.98,43.925c22.888,27.453 55.182,43.876 90.87,47.579c19.266,2.014 629.286,-37.979 629.286,-37.979l122.287,6.871c6.758,0.39 13.467,-1.462 19.087,-5.23l416.47,-278.719c30.588,-20.549 72.352,-12.492 93.096,17.982c18.957,27.875 14.246,65.757 -11.095,88.255Z" style="fill:#fff;fill-rule:nonzero;"/></svg>